<svg xmlns="http://www.w3.org/2000/svg" viewBox="0 0 500 500"><g id="freepik--background-complete--inject-17"><polygon points="128.64 428.39 128.64 471.11 191.11 471.11 260.01 471.11 260.01 428.39 128.64 428.39" style="fill:#f5f5f5"></polygon><polygon points="123.13 416.45 123.13 428.39 264.6 428.39 264.6 416.45 191.11 416.45 123.13 416.45" style="fill:#e0e0e0"></polygon><polygon points="193.87 471.11 260.01 471.11 260.01 428.39 264.6 428.39 264.6 416.45 191.11 416.45 191.11 427.29 193.87 471.11" style="fill:#e0e0e0"></polygon><rect x="147.01" y="435.28" width="26.64" height="6.43" style="fill:#e0e0e0"></rect><rect x="143.58" y="449.75" width="34.21" height="13.58" style="fill:#fff"></rect><polygon points="143.72 383.63 143.72 416.45 191.71 416.45 244.64 416.45 244.64 383.63 143.72 383.63" style="fill:#f5f5f5"></polygon><polygon points="139.49 374.46 139.49 383.63 248.16 383.63 248.16 374.46 191.71 374.46 139.49 374.46" style="fill:#e0e0e0"></polygon><polygon points="193.83 416.45 244.64 416.45 244.64 383.63 248.16 383.63 248.16 374.46 191.71 374.46 191.71 382.79 193.83 416.45" style="fill:#ebebeb"></polygon><rect x="157.84" y="388.93" width="20.46" height="4.94" style="fill:#e0e0e0"></rect><rect x="155.2" y="400.04" width="26.28" height="10.43" style="fill:#fff"></rect><path d="M343.44,470c-22.09-15.1-27.36-43.48-26.76-69.06.1-4.26-.42-8.76,1.57-12.52s6.71-6.38,10.54-4.62c3.19,1.46,4.61,5.13,6.41,8.16a25,25,0,0,0,10.11,9.46c2.73,1.38,6.1,2.21,8.77.7,3.66-2.07,4-7.16,4-11.4q-.19-11.87-.4-23.73c-.07-4.24-.12-8.58,1.15-12.62s4.16-7.81,8.19-9,9,1.11,9.93,5.25c.38,1.73,0,3.53.18,5.29s1,3.7,2.66,4.17,3.38-.74,4.64-2c4.33-4.33,7.25-9.88,10-15.4s5.36-11.16,9.28-15.88,9.39-8.47,15.46-8.88,12.59,3.28,14.19,9.23-1.83,12.07-5.57,16.95a94.6,94.6,0,0,1-19.53,19c-1.33,1-2.77,2-3.26,3.58-.9,2.84,1.81,5.62,4.62,6.52,3.17,1,6.6.66,9.91,1s6.92,1.77,8.2,4.89c1.78,4.32-1.8,8.9-5.34,11.92a81.15,81.15,0,0,1-23.87,14.11c-3.11,1.18-6.38,2.21-8.88,4.43s-4,6.05-2.42,9,5.47,3.9,8.73,3.26,6.17-2.45,9.28-3.66c5.8-2.26,13.34-1.94,17.13,3.07,2.49,3.28,2.75,7.89,1.55,11.86s-3.68,7.39-6.32,10.55c-9.24,11.07-21.11,20-34.59,24.85s-26,6.23-39.5,1.46" style="fill:#f5f5f5"></path><path d="M349.87,453.93a380.44,380.44,0,0,1,14.67-41.1q2.22-5.35,4.4-10.57c1.45-3.47,2.89-6.91,4.5-10.19a191.25,191.25,0,0,1,10.37-18.29c3.58-5.66,7.18-10.9,10.58-15.78s6.68-9.35,9.84-13.31a152.05,152.05,0,0,1,16.25-17.54c2.08-1.91,3.73-3.34,4.87-4.3l1.3-1.08a3.16,3.16,0,0,1,.46-.34,3,3,0,0,1-.41.41L425.45,323c-1.1,1-2.72,2.46-4.76,4.41a159.71,159.71,0,0,0-16,17.66c-3.12,4-6.35,8.46-9.74,13.34s-6.95,10.13-10.51,15.79a192.7,192.7,0,0,0-10.28,18.25c-1.6,3.26-3,6.67-4.48,10.14l-4.39,10.58a390.69,390.69,0,0,0-14.7,41" style="fill:#e0e0e0"></path><path d="M373.67,392a8.38,8.38,0,0,1-.44-1.8c-.23-1.18-.52-2.88-.84-5-.64-4.22-1.33-10.08-2.07-16.54s-1.51-12.29-2.21-16.49c-.35-2.1-.65-3.8-.87-5a7.93,7.93,0,0,1-.25-1.84,9.2,9.2,0,0,1,.55,1.78c.31,1.15.69,2.84,1.11,4.93.85,4.19,1.71,10,2.45,16.5l1.84,16.55c.24,2,.44,3.67.59,5A8.79,8.79,0,0,1,373.67,392Z" style="fill:#e0e0e0"></path><path d="M428.13,381.28a12.59,12.59,0,0,1-2.18.28c-1.4.14-3.42.33-5.92.65-5,.59-11.85,1.64-19.38,3.14s-14.28,3.18-19.12,4.52c-2.43.65-4.39,1.23-5.74,1.63a11.42,11.42,0,0,1-2.12.54,11.28,11.28,0,0,1,2-.84c1.32-.48,3.26-1.14,5.67-1.87,4.83-1.48,11.58-3.23,19.13-4.75A193.1,193.1,0,0,1,420,381.65c2.51-.25,4.54-.35,5.95-.4A11.46,11.46,0,0,1,428.13,381.28Z" style="fill:#e0e0e0"></path><path d="M350.53,452.92a2.3,2.3,0,0,1-.38-.66c-.26-.53-.57-1.18-1-2-.82-1.71-1.94-4.22-3.28-7.33-2.7-6.22-6.16-14.94-9.84-24.6S329,400,326.45,393.69l-3.06-7.42-.82-2a3.25,3.25,0,0,1-.24-.73,2.51,2.51,0,0,1,.38.66l1,2c.82,1.71,1.94,4.22,3.29,7.33,2.7,6.22,6.15,14.94,9.84,24.61s7.05,18.4,9.61,24.67l3.06,7.42.82,2A3.25,3.25,0,0,1,350.53,452.92Z" style="fill:#e0e0e0"></path><path d="M422.79,428.8a2.64,2.64,0,0,1-.71.3l-2.1.73-7.74,2.6c-6.53,2.19-15.52,5.33-25.45,8.8s-19,6.54-25.54,8.6c-3.29,1-6,1.83-7.82,2.35l-2.14.59a2.41,2.41,0,0,1-.76.15,3.1,3.1,0,0,1,.72-.3l2.09-.73,7.74-2.6c6.54-2.19,15.53-5.32,25.46-8.8s18.95-6.53,25.53-8.59c3.29-1,6-1.84,7.82-2.36L422,429A2.91,2.91,0,0,1,422.79,428.8Z" style="fill:#e0e0e0"></path><path d="M445.3,93.84a10.24,10.24,0,0,0,6.1-9.47c0-5.65-4.26-10.25-9.56-10.28s-9.62,4.54-9.64,10.19a10.21,10.21,0,0,0,6.12,9.56c-14.77,2.23-14.1,18.28-14.1,18.28l34.93.16S459.94,96.05,445.3,93.84Z" style="fill:#e0e0e0"></path><path d="M440.19,217.42a16,16,0,0,1,3.85-1.67l.8-3.82,6.45-.12.93,3.79a15.76,15.76,0,0,1,3.91,1.54l3.26-2.14,4.64,4.49-2,3.33a15.7,15.7,0,0,1,1.68,3.86l3.82.79.11,6.45-3.79.93a15.59,15.59,0,0,1-1.54,3.92l2.14,3.26L460,246.67l-3.34-2a16,16,0,0,1-3.85,1.67l-.8,3.82-6.45.11-.93-3.78a16.15,16.15,0,0,1-3.91-1.54l-3.26,2.13-4.64-4.48,2-3.33a15.7,15.7,0,0,1-1.68-3.86l-3.82-.79-.11-6.45,3.79-.93a15.59,15.59,0,0,1,1.54-3.92L432.37,220l4.48-4.64,3.34,2Zm3.43,8.6a6.92,6.92,0,1,0,9.79-.18A6.92,6.92,0,0,0,443.62,226Z" style="fill:#e0e0e0"></path><path d="M443.62,226a5.57,5.57,0,0,1,1.29-1.14,7,7,0,0,1,7.59,0,7,7,0,0,1,3.11,4.74,6.89,6.89,0,0,1,0,2.13,7.05,7.05,0,0,1-5.84,6.05,6.69,6.69,0,0,1-2.14,0,6.43,6.43,0,0,1-2-.57,7,7,0,0,1-3.17-10,5.4,5.4,0,0,1,1.08-1.32s-.41.45-.95,1.4a6.89,6.89,0,0,0-.76,4.43,6.78,6.78,0,0,0,3.95,5.12,6.42,6.42,0,0,0,1.86.52,6.53,6.53,0,0,0,2,0,6.72,6.72,0,0,0,5.52-5.72,6.21,6.21,0,0,0,0-2,6.14,6.14,0,0,0-.58-1.85,6.88,6.88,0,0,0-2.33-2.68,6.79,6.79,0,0,0-2.92-1.08A6.88,6.88,0,0,0,445,225,15.49,15.49,0,0,0,443.62,226Z" style="fill:#e0e0e0"></path><path d="M440.19,217.42a.85.85,0,0,1-.22-.11l-.64-.37-2.51-1.48h.08l-4.46,4.66V220c.66,1,1.38,2.08,2.15,3.25l0,.06,0,.06a15.93,15.93,0,0,0-1.52,3.89v.07l-.08,0-3.79.94.11-.14c0,2,.08,4.19.13,6.45l-.12-.15,3.81.79.1,0,0,.1a15.76,15.76,0,0,0,1.66,3.81l.06.09-.06.09-2,3.33,0-.22c1.46,1.41,3,2.93,4.65,4.48l-.23,0,3.26-2.14.09-.06.1,0a15.46,15.46,0,0,0,3.87,1.52l.11,0,0,.11.93,3.79-.19-.15,6.45-.12-.19.16.79-3.82,0-.12.11,0a15.65,15.65,0,0,0,3.81-1.65h0l.11-.07.1.07,3.33,2-.24,0q2.26-2.35,4.48-4.64l0,.24-2.13-3.26-.07-.1.06-.1a15.54,15.54,0,0,0,1.53-3.86l0-.12.12,0,3.78-.92-.14.19c0-2.21-.07-4.36-.11-6.45l.15.17-3.82-.8-.1,0,0-.1a15.76,15.76,0,0,0-1.65-3.82l-.06-.09.06-.09,2-3.33,0,.2q-2.44-2.35-4.63-4.49l.18,0-3.26,2.13-.07.05-.08,0a15.69,15.69,0,0,0-3.87-1.54l-.08,0,0-.08c-.33-1.37-.63-2.62-.92-3.79l.12.09-6.45.09.08-.07c-.32,1.52-.59,2.77-.81,3.81v0h0a16,16,0,0,0-2.95,1.13l-.69.36a1.08,1.08,0,0,1-.23.12l.21-.14c.15-.1.37-.23.68-.4a16.19,16.19,0,0,1,2.95-1.2l0,0,.77-3.82v-.07h.08l6.45-.14h.09l0,.09.94,3.78-.09-.09A15.43,15.43,0,0,1,456.2,217h-.15l3.26-2.14.1-.07.09.09,4.65,4.47.09.09-.07.11-2,3.34v-.18a16.06,16.06,0,0,1,1.7,3.9l-.14-.13,3.82.79.15,0v.15q.06,3.15.12,6.45v.15l-.15,0-3.78.93.14-.14a16.32,16.32,0,0,1-1.56,4v-.2c.71,1.07,1.42,2.16,2.14,3.26l.09.13-.11.11-4.48,4.64-.11.12-.14-.08-3.33-2h.2a16,16,0,0,1-3.9,1.69l.14-.15c-.27,1.31-.54,2.61-.8,3.82l0,.15H452l-6.46.11h-.15l0-.15-.92-3.79.14.14a15.88,15.88,0,0,1-4-1.56h.19l-3.26,2.14-.12.08-.11-.1-4.64-4.49-.1-.1.08-.12,2-3.33v.18a16.23,16.23,0,0,1-1.69-3.9l.13.11-3.82-.8-.12,0v-.12c0-2.26-.07-4.42-.1-6.45V228l.11,0,3.79-.92-.1.1a15.44,15.44,0,0,1,1.57-3.94v.12l-2.12-3.27-.05-.07.06-.06,4.51-4.61,0,0,0,0,2.46,1.52.63.41Z" style="fill:#e0e0e0"></path><path d="M99.77,76a7.54,7.54,0,0,0,7.12-1.54c1.23,1.78,2.8,3.9,4.57,6.15q1.47,1.86,2.82,3.47a7.7,7.7,0,0,0-4,9.08c-1.67.52-3.56,1.16-5.57,1.9-1.79.65-3.44,1.31-4.91,1.92a7.72,7.72,0,1,0,0,4.55,7.59,7.59,0,0,0,.32-2.65c1.62-.51,3.42-1.12,5.35-1.82s4-1.52,5.59-2.22a7.73,7.73,0,1,0,5.21-11.41c-.94-1.29-2-2.68-3.15-4.14-1.83-2.33-3.57-4.4-5-6.05a9.15,9.15,0,0,0,1.56-2.93c1.4-4.43-.77-9.06-4.84-10.34s-8.49,1.27-9.89,5.69S95.7,74.71,99.77,76Z" style="fill:#e0e0e0"></path><path d="M54.2,257.56,62,267.18a1.41,1.41,0,0,0,1.21.52l12.34-1a1.43,1.43,0,0,1,1.31,2.2l-6.73,10.39a1.41,1.41,0,0,0-.12,1.32l4.74,11.43A1.43,1.43,0,0,1,73.08,294l-12-3.2a1.43,1.43,0,0,0-1.3.3l-9.41,8a1.42,1.42,0,0,1-2.34-1l-.66-12.36a1.45,1.45,0,0,0-.68-1.14l-10.56-6.46a1.43,1.43,0,0,1,.23-2.55L48,271.17a1.43,1.43,0,0,0,.88-1l2.88-12A1.43,1.43,0,0,1,54.2,257.56Z" style="fill:#e0e0e0"></path><path d="M346.46,294.4a14,14,0,1,0-26,7.06h0l0,.05c.53.9,1.2,1.55,1.88,2.49l8.11,10.74a2.51,2.51,0,0,0,4,0l8-10.56a29.06,29.06,0,0,0,2-2.69l0,0h0A13.89,13.89,0,0,0,346.46,294.4Zm-14,6.08a6.15,6.15,0,1,1,6.15-6.14A6.14,6.14,0,0,1,332.49,300.48Z" style="fill:#e0e0e0"></path></g><g id="freepik--Character--inject-17"><path d="M233.29,323.19l-1.4.47c-6.24,2.1-24.81,8.24-30.42,10.54,0,0,9.94,87.91,11.1,96.08S214,471.14,214,471.14H319.77s-.28-88.11,0-101.77c.39-17.68,2.58-35.17,2.58-35.17L303.91,327,282.32,315.6Z" style="fill:#EB399A"></path><g style="opacity:0.30000000000000004"><path d="M256.81,342.21Q243.87,390.29,229.53,438c-1.13,3.75-2.24,7.86-.72,11.47a10.27,10.27,0,0,0,8.16,5.8A16.48,16.48,0,0,0,247,453c7.15-4,11.79-11.51,14.07-19.37s2.49-16.15,2.67-24.33l1.5-65.47Z"></path></g><path d="M201.47,334.2s-15.51,6.87-14.3,34.43a339.39,339.39,0,0,0,3.66,35.91L234.44,392l-11.09-47.86Z" style="fill:#EB399A"></path><path d="M304.89,378.55l-2.33,31.81,43.84-14.2s-9.4-56.14-24.29-62l-16.05,27.43Z" style="fill:#EB399A"></path><path d="M309.88,369.37a4.73,4.73,0,0,1,.08.64c0,.48.08,1.1.13,1.87.09,1.68.22,4,.38,6.84.28,5.79.59,13.78.88,22.61s.53,16.77.72,22.62c.09,2.84.16,5.17.21,6.85,0,.77,0,1.39,0,1.87a4.72,4.72,0,0,1,0,.65,2.8,2.8,0,0,1-.09-.65c0-.48-.07-1.1-.13-1.86-.09-1.68-.22-4-.38-6.85-.28-5.78-.59-13.78-.87-22.61s-.54-16.77-.73-22.61c-.09-2.85-.16-5.17-.21-6.86,0-.76,0-1.38,0-1.86A2.69,2.69,0,0,1,309.88,369.37Z" style="fill:#263238"></path><path d="M223.16,356a5.86,5.86,0,0,1-.57-1c-.38-.77-.86-1.71-1.41-2.83a47.09,47.09,0,0,0-5.47-8.78,21.36,21.36,0,0,0-8.11-6.18,25.79,25.79,0,0,0-4.12-1.16,4.12,4.12,0,0,1,1.16,0,14.12,14.12,0,0,1,3.09.77,20.6,20.6,0,0,1,8.39,6.2,41.52,41.52,0,0,1,5.39,9c.56,1.22,1,2.21,1.26,2.9A4.05,4.05,0,0,1,223.16,356Z" style="fill:#263238"></path><path d="M315,332.86a64.26,64.26,0,0,0-2.76,7.36,63,63,0,0,0-1.3,7.76,8,8,0,0,1-.08-2.33,26.48,26.48,0,0,1,.88-5.56,26,26,0,0,1,2-5.25A8.47,8.47,0,0,1,315,332.86Z" style="fill:#263238"></path><path d="M217.49,346.56s-.16,0-.43.05a1.66,1.66,0,0,0-1,.7,4.08,4.08,0,0,0-.66,1.81,8.41,8.41,0,0,1-.32,1.24,2.37,2.37,0,0,1-.89,1.19,2.94,2.94,0,0,1-3.24-.34,11.6,11.6,0,0,1-2.32-2.95,5.26,5.26,0,0,0-1.3-1.4,2.92,2.92,0,0,0-1.78-.6,1.89,1.89,0,0,0-1.52,1,5,5,0,0,0-.46,2.05c-.05.74-.06,1.49-.15,2.23a4.65,4.65,0,0,1-.71,2.15,2.27,2.27,0,0,1-.38.44,2,2,0,0,1-.46.35,2.79,2.79,0,0,1-1.07.34,3.89,3.89,0,0,1-2.07-.39,8.49,8.49,0,0,1-2.77-2.56,10,10,0,0,0-2.2-2.25,3.32,3.32,0,0,0-2.39-.62,2.54,2.54,0,0,0-1.54,1,1.86,1.86,0,0,0-.34,1.15c0,.28.1.42.07.43a.92.92,0,0,1-.17-.42,1.84,1.84,0,0,1,.26-1.26,2.69,2.69,0,0,1,1.66-1.22,3.54,3.54,0,0,1,2.65.61,10.06,10.06,0,0,1,2.34,2.28A8.06,8.06,0,0,0,199,354a3.43,3.43,0,0,0,1.81.34,2.11,2.11,0,0,0,1.55-.93c.74-1.09.65-2.64.76-4.13a5.52,5.52,0,0,1,.52-2.26,2.44,2.44,0,0,1,2-1.24,4.29,4.29,0,0,1,3.49,2.24,12.14,12.14,0,0,0,2.18,2.87,2.59,2.59,0,0,0,2.79.39,3.3,3.3,0,0,0,1.12-2.19,4.23,4.23,0,0,1,.79-1.88,1.8,1.8,0,0,1,1.11-.68A.84.84,0,0,1,217.49,346.56Z" style="fill:#fafafa"></path><path d="M226.36,361.31a2,2,0,0,1,0,.58,3.76,3.76,0,0,1-.55,1.55,4.5,4.5,0,0,1-2,1.72,3.86,3.86,0,0,1-3.44-.05c-1.17-.57-2.14-1.68-3.5-2.06s-2.87.54-3.74,1.87-1.28,3.1-2.2,4.74a5.63,5.63,0,0,1-2,2.07,3.23,3.23,0,0,1-3,.24,5.29,5.29,0,0,1-2.08-2.12c-.49-.82-.9-1.65-1.4-2.38a3.54,3.54,0,0,0-1.9-1.54,2.68,2.68,0,0,0-2.24.44,8.53,8.53,0,0,0-2.7,3.68,30.52,30.52,0,0,1-1.88,3.71A6.36,6.36,0,0,1,188.9,377a3.49,3.49,0,0,1-1.62-.29,1.59,1.59,0,0,1-.38-.2l-.12-.09a4.31,4.31,0,0,0,2.11.37,6.2,6.2,0,0,0,4.62-3.23,31,31,0,0,0,1.8-3.69,8.88,8.88,0,0,1,2.82-3.9,3.21,3.21,0,0,1,2.64-.52,4,4,0,0,1,2.19,1.73c.53.77.94,1.61,1.43,2.4a4.67,4.67,0,0,0,1.85,1.91,2.68,2.68,0,0,0,2.5-.21,5,5,0,0,0,1.81-1.88c.88-1.53,1.25-3.3,2.24-4.75a5.28,5.28,0,0,1,1.86-1.72,3.19,3.19,0,0,1,2.39-.3,5.84,5.84,0,0,1,1.94,1.06,14.38,14.38,0,0,0,1.62,1.09,3.54,3.54,0,0,0,3.15.11,4.22,4.22,0,0,0,2.61-3.58Z" style="fill:#fafafa"></path><path d="M221.26,382.67s-.13,0-.36-.06a1.47,1.47,0,0,0-1,.31,3,3,0,0,0-.92,1.37,5.05,5.05,0,0,0-.1,2.23,5.65,5.65,0,0,1-.21,2.9,3.08,3.08,0,0,1-2.91,1.67,4.63,4.63,0,0,1-3.43-1.6,13.75,13.75,0,0,1-2.18-3.5l.18.14a2.94,2.94,0,0,0-2.72,1.35,7,7,0,0,0-1.15,3.3,25,25,0,0,1-.48,2.7,5.74,5.74,0,0,1-1.31,2.41,3.23,3.23,0,0,1-2.43,1.12,3.82,3.82,0,0,1-2.35-1c-1.28-1.09-1.91-2.53-2.79-3.6a4.2,4.2,0,0,0-3.16-1.8,4,4,0,0,0-2.88,1,4.13,4.13,0,0,0-1.22,2,5.1,5.1,0,0,0-.09,2s0,0-.06-.12a2.53,2.53,0,0,1-.1-.4,4.06,4.06,0,0,1,0-1.57,4.14,4.14,0,0,1,4.32-3.28,4.28,4.28,0,0,1,1.89.51,5.52,5.52,0,0,1,1.59,1.39c.93,1.12,1.57,2.52,2.76,3.51a3.32,3.32,0,0,0,2.05.87,2.72,2.72,0,0,0,2.05-1,5.35,5.35,0,0,0,1.18-2.19,26.54,26.54,0,0,0,.47-2.65,7.33,7.33,0,0,1,1.25-3.53,3.42,3.42,0,0,1,3.21-1.53l.13,0,.06.11a13.77,13.77,0,0,0,2.07,3.4,4.18,4.18,0,0,0,3.1,1.49,2.68,2.68,0,0,0,2.56-1.4,5.5,5.5,0,0,0,.24-2.71,5,5,0,0,1,.18-2.35,3,3,0,0,1,1.05-1.42,1.42,1.42,0,0,1,1.08-.25A.78.78,0,0,1,221.26,382.67Z" style="fill:#fafafa"></path><path d="M342.66,378.44s-.18,0-.5.14a2.37,2.37,0,0,0-1.13.91,6.22,6.22,0,0,0-.89,2.16,12.64,12.64,0,0,1-.85,3.1A3.15,3.15,0,0,1,338,386.2a2.3,2.3,0,0,1-2.12.07,4.23,4.23,0,0,1-1.61-1.56,14.16,14.16,0,0,1-1.06-2,6.48,6.48,0,0,0-1.29-1.89,2.21,2.21,0,0,0-2-.77,1.93,1.93,0,0,0-1.36,1.67,14.77,14.77,0,0,0-.13,2.61,7.29,7.29,0,0,1-1.82,5,4.38,4.38,0,0,1-4.75,1.13c-1.53-.69-2.44-2-3.47-2.83a3.56,3.56,0,0,0-3.31-1.15,4.19,4.19,0,0,0-2.38,1.8,7.68,7.68,0,0,0-.93,2.15c-.34,1.27-.46,2-.51,2a2.12,2.12,0,0,1,0-.53c.05-.34.12-.85.27-1.5a7.78,7.78,0,0,1,.88-2.26,4.52,4.52,0,0,1,2.54-2,3.28,3.28,0,0,1,1.93.08,5.6,5.6,0,0,1,1.76,1.1c1.06.91,2,2.13,3.36,2.72a3.92,3.92,0,0,0,4.2-1.05,6.79,6.79,0,0,0,1.67-4.65,13.72,13.72,0,0,1,.15-2.7,3.1,3.1,0,0,1,.55-1.3,2.16,2.16,0,0,1,1.19-.77,2.73,2.73,0,0,1,2.47.92,7,7,0,0,1,1.38,2,13.35,13.35,0,0,0,1,2,3.77,3.77,0,0,0,1.41,1.42,1.9,1.9,0,0,0,1.74,0,2.78,2.78,0,0,0,1.13-1.27,12.67,12.67,0,0,0,.9-3,6.06,6.06,0,0,1,1-2.21,2.32,2.32,0,0,1,1.26-.89A1.14,1.14,0,0,1,342.66,378.44Z" style="fill:#fafafa"></path><path d="M337.46,354.94a1.49,1.49,0,0,1-.18.37c-.14.23-.35.56-.64,1a10.18,10.18,0,0,1-1.19,1.44,5.26,5.26,0,0,1-2.13,1.31,3.71,3.71,0,0,1-3-.27c-1-.61-1.49-1.79-2.39-2.41a1.54,1.54,0,0,0-1.51-.16,2.65,2.65,0,0,0-1.16,1.26,4.91,4.91,0,0,0-.48,1.81c0,.66,0,1.34,0,2.05a5.83,5.83,0,0,1-.4,2.09,2.93,2.93,0,0,1-1.45,1.55,4.74,4.74,0,0,1-3.85-.22,16.91,16.91,0,0,1-2.88-1.9,8.46,8.46,0,0,0-2.53-1.38,3.32,3.32,0,0,0-2.28.11,3.09,3.09,0,0,0-1.39,1.06,2.21,2.21,0,0,0-.34,1.46s-.07-.13-.11-.4a1.85,1.85,0,0,1,.28-1.16,3.12,3.12,0,0,1,1.44-1.22,3.67,3.67,0,0,1,2.5-.21,8.81,8.81,0,0,1,2.68,1.39,18.36,18.36,0,0,0,2.82,1.81,4.3,4.3,0,0,0,3.44.2,2.48,2.48,0,0,0,1.2-1.29,5.4,5.4,0,0,0,.35-1.91c0-.68,0-1.36,0-2.06a5.5,5.5,0,0,1,.54-2,3.13,3.13,0,0,1,1.42-1.48,2,2,0,0,1,2,.21c1.06.79,1.49,1.93,2.34,2.45a3.4,3.4,0,0,0,2.7.28,5.07,5.07,0,0,0,2-1.17,10.91,10.91,0,0,0,1.23-1.35A14.71,14.71,0,0,1,337.46,354.94Z" style="fill:#fafafa"></path><path d="M311.9,412.48a1.44,1.44,0,0,1-.51.59,2.89,2.89,0,0,1-2.2.36,5.94,5.94,0,0,1-1.55-.53,16.91,16.91,0,0,1-1.61-1,9.2,9.2,0,0,0-1.87-1.07,3.14,3.14,0,0,0-2.28-.06,4.08,4.08,0,0,0-1.87,1.73,21.73,21.73,0,0,0-1.3,2.6,14.32,14.32,0,0,1-1.52,2.81A4.43,4.43,0,0,1,295.9,419a2.57,2.57,0,0,1-.85.32c-.14,0-.29.07-.44.09h-.46a3.21,3.21,0,0,1-1.74-.61,6.41,6.41,0,0,1-1.32-1.28c-.77-.95-1.4-2-2.15-3a5.57,5.57,0,0,0-2.81-2.18,4.53,4.53,0,0,0-3.52.74,8.19,8.19,0,0,0-2.58,2.72c-.69,1.07-1.24,2.2-1.88,3.29a11.13,11.13,0,0,1-2.3,2.93,6.06,6.06,0,0,1-3.24,1.55,4.53,4.53,0,0,1-3.29-1,10.78,10.78,0,0,1-2.12-2.39c-1.16-1.67-2.18-3.3-3.61-4.2a4.07,4.07,0,0,0-2.23-.68,5.28,5.28,0,0,0-2.06.47,5.71,5.71,0,0,0-2.55,2.24,4.54,4.54,0,0,0-.66,2.06,5.7,5.7,0,0,1,0,.77s0-.06,0-.19a4.73,4.73,0,0,1-.06-.58,4.53,4.53,0,0,1,.6-2.16,5.79,5.79,0,0,1,2.6-2.4,5.39,5.39,0,0,1,2.18-.54,4.41,4.41,0,0,1,2.43.69c1.54,1,2.6,2.63,3.76,4.27a11.06,11.06,0,0,0,2.05,2.28,4,4,0,0,0,2.95.87,5.54,5.54,0,0,0,3-1.45,10.53,10.53,0,0,0,2.18-2.81c.62-1.07,1.18-2.21,1.88-3.31a8.75,8.75,0,0,1,2.74-2.88,5,5,0,0,1,3.93-.8,6.18,6.18,0,0,1,3.09,2.36c.77,1,1.39,2.06,2.13,3a3.8,3.8,0,0,0,2.69,1.72,3.16,3.16,0,0,0,2.66-1.35,14.62,14.62,0,0,0,1.49-2.71,21.09,21.09,0,0,1,1.35-2.64,4.45,4.45,0,0,1,2.08-1.86,3.48,3.48,0,0,1,2.53.1,9,9,0,0,1,1.91,1.14,16.32,16.32,0,0,0,1.57,1.07,5.33,5.33,0,0,0,1.47.55,2.8,2.8,0,0,0,2.1-.25A4.58,4.58,0,0,0,311.9,412.48Z" style="fill:#fafafa"></path><path d="M310,379.2s0,.06-.08.17a1.06,1.06,0,0,1-.41.34,2.3,2.3,0,0,1-2-.18c-.82-.38-1.47-1.32-2.57-1.76a1.62,1.62,0,0,0-1.69.29,4.2,4.2,0,0,0-.92,1.88,12.71,12.71,0,0,1-.81,2.33,3.25,3.25,0,0,1-.87,1.06,2.73,2.73,0,0,1-1.34.52c-2,.2-3.86-1.12-5.14-2.69A15.64,15.64,0,0,0,292,379a4.49,4.49,0,0,0-2.91-.93,8,8,0,0,0-5.58,3.29c-1.43,1.84-2.38,4-3.65,5.84a9.71,9.71,0,0,1-5,4.14,5.59,5.59,0,0,1-3.08.18,5.11,5.11,0,0,1-2.49-1.5c-1.29-1.34-2.14-2.87-3.42-3.66a3.35,3.35,0,0,0-2-.51,3.44,3.44,0,0,0-1.75.65,7.71,7.71,0,0,0-2.07,2.29c-.92,1.46-1.24,2.38-1.29,2.35a2.73,2.73,0,0,1,.22-.66,15.93,15.93,0,0,1,.89-1.8,8.11,8.11,0,0,1,2.08-2.42,3.75,3.75,0,0,1,1.89-.74,3.68,3.68,0,0,1,2.22.53c1.41.85,2.28,2.41,3.54,3.67a4.68,4.68,0,0,0,2.28,1.36,5.2,5.2,0,0,0,2.83-.2,9.27,9.27,0,0,0,4.7-4c1.23-1.83,2.18-4,3.66-5.88a8.42,8.42,0,0,1,6-3.48,5.09,5.09,0,0,1,3.22,1,16.58,16.58,0,0,1,2.26,2.25,8.56,8.56,0,0,0,2.18,1.93,4.38,4.38,0,0,0,2.56.65,2.37,2.37,0,0,0,1.9-1.34,13,13,0,0,0,.82-2.25,4.46,4.46,0,0,1,1.05-2,2,2,0,0,1,2-.32c1.2.53,1.81,1.5,2.57,1.86a2.22,2.22,0,0,0,1.85.27A1.52,1.52,0,0,0,310,379.2Z" style="fill:#fafafa"></path><path d="M310.51,344.69s-.15-.15-.51-.34a2.38,2.38,0,0,0-1.69-.12,3.26,3.26,0,0,0-2.06,1.68,17.37,17.37,0,0,0-1.25,3.51,7.7,7.7,0,0,1-.95,2,3.81,3.81,0,0,1-2,1.48,4.72,4.72,0,0,1-2.63-.08,9.25,9.25,0,0,1-2.48-1.18c-1.55-1-3-2.35-5-2.68a4.51,4.51,0,0,0-2.8.45,8.42,8.42,0,0,0-2.38,1.89c-1.42,1.53-2.38,3.41-3.72,4.95a10,10,0,0,1-2.23,2,5.54,5.54,0,0,1-2.78.89,7.79,7.79,0,0,1-4.88-2c-1.29-1-2.37-2.11-3.51-2.88a6.06,6.06,0,0,0-3.39-1.23,4.36,4.36,0,0,0-2.58.83,2.82,2.82,0,0,0-1,1.36c-.14.38-.13.6-.17.6a1.6,1.6,0,0,1,.07-.63,2.82,2.82,0,0,1,1-1.49,4.56,4.56,0,0,1,2.7-1,6.46,6.46,0,0,1,3.6,1.22c1.19.77,2.3,1.85,3.57,2.85a7.34,7.34,0,0,0,4.59,1.88,6.6,6.6,0,0,0,4.64-2.77c1.29-1.49,2.25-3.37,3.73-5a8.92,8.92,0,0,1,2.53-2,5.06,5.06,0,0,1,3.12-.5c2.11.4,3.62,1.81,5.12,2.79s3.22,1.66,4.73,1.24a3.39,3.39,0,0,0,1.76-1.29,7.18,7.18,0,0,0,.93-1.91,18.17,18.17,0,0,1,1.34-3.54,4.17,4.17,0,0,1,1.05-1.18,3.45,3.45,0,0,1,1.22-.55,2.38,2.38,0,0,1,1.79.23A1.3,1.3,0,0,1,310.51,344.69Z" style="fill:#fafafa"></path><path d="M305.38,328.47a1.16,1.16,0,0,1-.06.37,5.85,5.85,0,0,1-.36,1,3.46,3.46,0,0,1-1.06,1.39,1.84,1.84,0,0,1-2.28-.15,11.13,11.13,0,0,1-1.54-2.3,3.19,3.19,0,0,0-.95-1.05,2.79,2.79,0,0,0-1.4-.44,4.07,4.07,0,0,0-3,1.11,9.9,9.9,0,0,0-2.07,2.94,7.42,7.42,0,0,1-1.05,1.65,2.23,2.23,0,0,1-1.82.81,2.47,2.47,0,0,1-1.65-1,4.86,4.86,0,0,1-.83-1.57,6.33,6.33,0,0,0-1.28-2.71,2,2,0,0,0-1.12-.58,1.34,1.34,0,0,0-1.06.32,4.56,4.56,0,0,0-1.05,1.87,4.08,4.08,0,0,1-.86,1.51,1.64,1.64,0,0,1-.95.55.74.74,0,0,1-.39,0,1.79,1.79,0,0,0,1.19-.66,4.29,4.29,0,0,0,.74-1.47,4.62,4.62,0,0,1,1.07-2.05,1.72,1.72,0,0,1,1.36-.45,2.47,2.47,0,0,1,1.37.67,6.63,6.63,0,0,1,1.44,2.86,4.35,4.35,0,0,0,.75,1.41,2,2,0,0,0,1.32.77,1.69,1.69,0,0,0,1.39-.65,7.53,7.53,0,0,0,1-1.53,9.91,9.91,0,0,1,2.19-3.09,4.52,4.52,0,0,1,3.35-1.21,3.26,3.26,0,0,1,1.62.54,3.67,3.67,0,0,1,1.07,1.2,11.06,11.06,0,0,0,1.42,2.25,1.49,1.49,0,0,0,1.87.18,3.34,3.34,0,0,0,1-1.23C305.2,329,305.33,328.45,305.38,328.47Z" style="fill:#fafafa"></path><path d="M240.17,328.54a1.85,1.85,0,0,1,.1.48,13.58,13.58,0,0,1,.12,1.38,6.75,6.75,0,0,1-.26,2.19,3.7,3.7,0,0,1-1.9,2.24,2.61,2.61,0,0,1-1.76.22,2.78,2.78,0,0,1-1.56-1.12c-.39-.52-.68-1.11-1-1.66a3,3,0,0,0-1.39-1.27,3,3,0,0,0-3.44,1.52,5.43,5.43,0,0,0-.62,2.13,17.32,17.32,0,0,0,0,2.38,7.41,7.41,0,0,1-.17,2.48,3.5,3.5,0,0,1-1.41,2,2.72,2.72,0,0,1-2.4.19,5.27,5.27,0,0,1-1.89-1.24c-1-1.06-1.64-2.26-2.52-3.11a3.85,3.85,0,0,0-3-1.22,3.8,3.8,0,0,0-2.49,1.07,3.9,3.9,0,0,0-1,1.81,5.19,5.19,0,0,0-.1,1.82,1.17,1.17,0,0,1-.14-.47,3.75,3.75,0,0,1,0-1.4,4,4,0,0,1,3.68-3.2,4.25,4.25,0,0,1,3.32,1.28c.94.89,1.61,2.11,2.56,3.08a4.92,4.92,0,0,0,1.72,1.12,2.25,2.25,0,0,0,2-.16,3,3,0,0,0,1.18-1.75,6.8,6.8,0,0,0,.15-2.31,8.27,8.27,0,0,1,.66-4.79,3.43,3.43,0,0,1,4.05-1.72,3.39,3.39,0,0,1,1.6,1.47c.37.58.65,1.17,1,1.65a2.36,2.36,0,0,0,1.31,1,2.27,2.27,0,0,0,1.5-.16,3.38,3.38,0,0,0,1.78-2,6.67,6.67,0,0,0,.34-2.1C240.19,329.21,240.12,328.55,240.17,328.54Z" style="fill:#fafafa"></path><path d="M293.74,213.4c-6.77-1.46-13.15,5-20,4.28-4.18-.46-7.56-3.48-11.39-5.22-5.73-2.59-13.51-2.43-18.86.88s-8.69,6.65-8.93,12.93c-5.33-2.49-13.27,4.64-15.64,11.06s-1.1,12.74,1.1,19.23A90.38,90.38,0,0,0,237.54,287c.69.79,1.76,1.63,2.66,1.11a2.26,2.26,0,0,0,.82-1.91c.46-6.13-.83-12.25-1.87-18.31s-1.83-12.34-.39-18.33,5.54-11.68,11.45-13.37c4.37-1.26,9.11-.2,13.25,1.68s7.86,4.56,11.83,6.76,8.38,4,12.92,3.79,9.21-2.73,10.79-7-1.07-9.9-5.58-10.47a8.93,8.93,0,0,0,.32-17.53Z" style="fill:#263238"></path><path d="M282.37,321.27l-1.75-13s17-4.77,15.12-22.1c-.9-8.37-4.16-25.46-7.28-40.88a32.49,32.49,0,0,0-35.71-25.81l-1.67.2c-17.88,3.22-25.14,20.2-21.43,38l10.07,69.6A21.54,21.54,0,0,0,264,345.45h0A21.53,21.53,0,0,0,282.37,321.27Z" style="fill:#ffbe9d"></path><path d="M280.64,308.2a40.5,40.5,0,0,1-23.34-3.7s6.83,11.82,23.92,8.18Z" style="fill:#eb996e"></path><path d="M283.13,255.75a2.52,2.52,0,0,1-2.06,2.87,2.42,2.42,0,0,1-2.83-2,2.53,2.53,0,0,1,2.06-2.88A2.42,2.42,0,0,1,283.13,255.75Z" style="fill:#263238"></path><path d="M285.75,255.3c-.27.35-2.3-.81-5-.48s-4.45,1.89-4.78,1.6c-.16-.13.08-.75.86-1.47a6.86,6.86,0,0,1,3.77-1.68,6.65,6.65,0,0,1,4,.78C285.54,254.58,285.89,255.13,285.75,255.3Z" style="fill:#263238"></path><path d="M257.82,257.88a2.56,2.56,0,0,1-2.06,2.92,2.44,2.44,0,0,1-2.84-2.06,2.56,2.56,0,0,1,2.05-2.93A2.46,2.46,0,0,1,257.82,257.88Z" style="fill:#263238"></path><path d="M260.22,257.37c-.27.36-2.31-.8-5-.48s-4.45,1.89-4.78,1.6c-.16-.12.08-.74.86-1.46a6.79,6.79,0,0,1,3.77-1.68,6.58,6.58,0,0,1,4,.78C260,256.66,260.36,257.21,260.22,257.37Z" style="fill:#263238"></path><path d="M271.69,276.34c0-.15,1.59-.63,4.23-1.3.67-.15,1.29-.36,1.35-.84a3.48,3.48,0,0,0-.69-1.95L274,267.32c-3.68-7-6.42-12.84-6.14-13s3.49,5.43,7.17,12.46l2.55,5a4,4,0,0,1,.67,2.63,1.73,1.73,0,0,1-1,1.12,4.44,4.44,0,0,1-1.13.3C273.39,276.28,271.72,276.49,271.69,276.34Z" style="fill:#263238"></path><path d="M264.08,279.12c.43-.07.78,2.81,3.5,4.56s5.75,1.07,5.82,1.47c.07.18-.61.64-1.91.83a7.17,7.17,0,0,1-4.84-1.06,6.28,6.28,0,0,1-2.75-3.84C263.65,279.88,263.88,279.13,264.08,279.12Z" style="fill:#263238"></path><path d="M258.88,245.2c-.17.76-2.87.74-5.94,1.49s-5.5,1.9-6,1.3c-.22-.29.13-1,1.07-1.84a10.64,10.64,0,0,1,9.09-2.12C258.31,244.35,259,244.85,258.88,245.2Z" style="fill:#263238"></path><path d="M283.85,246.56c-.4.66-2.3.26-4.51.49s-4,.9-4.52.32c-.23-.29,0-.93.74-1.6a6.57,6.57,0,0,1,7.28-.65C283.69,245.65,284,246.24,283.85,246.56Z" style="fill:#263238"></path><path d="M232.6,270.26c-.31-.09-12.31-2.09-10.52,9.7s13.27,7.55,13.23,7.2S232.6,270.26,232.6,270.26Z" style="fill:#ffbe9d"></path><path d="M231,283.25c-.05,0-.18.17-.5.39a2.1,2.1,0,0,1-1.53.26c-1.32-.27-2.67-2.08-3.05-4.2a6.94,6.94,0,0,1,.13-3,2.39,2.39,0,0,1,1.3-1.81,1.06,1.06,0,0,1,1.3.38c.21.31.17.55.23.56s.23-.23.06-.71a1.37,1.37,0,0,0-.58-.66,1.57,1.57,0,0,0-1.18-.13,2.92,2.92,0,0,0-1.87,2.16,7.07,7.07,0,0,0-.21,3.39c.44,2.36,2,4.4,3.77,4.63a2.18,2.18,0,0,0,1.83-.6C231.05,283.54,231.08,283.26,231,283.25Z" style="fill:#eb996e"></path><path d="M291.68,241.17a25.18,25.18,0,0,1-22.8-2.34c-4.64-3.06-8.51-7.8-14-8.79a14.13,14.13,0,0,0-10.57,2.76,27.4,27.4,0,0,0-7.25,8.47c4.4,8.39,3.33,18.48,2.15,27.88a4.73,4.73,0,0,1-1,2.9c-1.27,1.24-3.46.65-4.84-.48-2.2-1.81-3.3-4.6-4.13-7.33A49.07,49.07,0,0,1,227,245a33.4,33.4,0,0,1,7.1-17.82,31.62,31.62,0,0,1,21-11,38.83,38.83,0,0,1,23.32,5.31,22.7,22.7,0,0,1,8.27,7.5" style="fill:#263238"></path><path d="M299.21,217a2.54,2.54,0,0,1,0,1,4.79,4.79,0,0,1-1.36,2.64,7.54,7.54,0,0,1-4.24,2,12.87,12.87,0,0,1-3,.17,6.25,6.25,0,0,1-3.18-1,4.16,4.16,0,0,1-1.88-3.16,3.68,3.68,0,0,1,2.15-3.32,4.53,4.53,0,0,1,2.09-.53,4,4,0,0,1,2.15.67,5.42,5.42,0,0,1,2.25,3.93,6.25,6.25,0,0,1-1.34,4.56,9.58,9.58,0,0,1-4,2.95,15.64,15.64,0,0,1-10.25.11,44.16,44.16,0,0,1-9.38-4.22,57.76,57.76,0,0,0-8.54-4.11,17.57,17.57,0,0,0-8.37-1,16.86,16.86,0,0,0-6.86,2.67,21.09,21.09,0,0,0-7,8.07c-.58,1.14-.95,2.07-1.2,2.7a6.49,6.49,0,0,1-.39,1,.82.82,0,0,1,.06-.26c.05-.17.11-.42.22-.74a22.06,22.06,0,0,1,1.11-2.76,20.9,20.9,0,0,1,7-8.32,17.27,17.27,0,0,1,7-2.81,18,18,0,0,1,8.61,1,55.69,55.69,0,0,1,8.65,4.12,45.23,45.23,0,0,0,9.27,4.16,15.19,15.19,0,0,0,9.86-.09,9,9,0,0,0,3.76-2.75,5.68,5.68,0,0,0,1.25-4.16,4.88,4.88,0,0,0-2-3.56,3.63,3.63,0,0,0-3.73-.14,3.27,3.27,0,0,0-1.92,2.87,3.8,3.8,0,0,0,1.67,2.84,5.83,5.83,0,0,0,3,1,11.83,11.83,0,0,0,2.88-.12,7.38,7.38,0,0,0,4.13-1.84,4.88,4.88,0,0,0,1.41-2.5C299.24,217.34,299.17,217,299.21,217Z" style="fill:#455a64"></path><path d="M218,247.77a19.81,19.81,0,0,0,3.73.51,10.6,10.6,0,0,0,3.92-.89,17.58,17.58,0,0,0,4.18-2.67,14,14,0,0,0,4.42-7.68,29.74,29.74,0,0,0,.35-3.76,3.07,3.07,0,0,1,.18,1,11.46,11.46,0,0,1-.12,2.82,13.6,13.6,0,0,1-4.45,8.06,16.77,16.77,0,0,1-4.35,2.72,10,10,0,0,1-4.13.8,9.35,9.35,0,0,1-2.78-.49A3.44,3.44,0,0,1,218,247.77Z" style="fill:#455a64"></path><path d="M219.54,256.27c0-.11,1.42,0,3.64-.36a16.35,16.35,0,0,0,12.71-10.79c.75-2.12.84-3.54,1-3.53a3.12,3.12,0,0,1,0,1,13.56,13.56,0,0,1-.55,2.67,15.77,15.77,0,0,1-13,11.06,13.52,13.52,0,0,1-2.72.11A2.75,2.75,0,0,1,219.54,256.27Z" style="fill:#455a64"></path><path d="M252.19,270.15a.31.31,0,0,1-.38-.22.3.3,0,0,1,.18-.4.32.32,0,0,1,.38.22A.31.31,0,0,1,252.19,270.15Z" style="fill:#eb996e"></path><path d="M257.13,268.38a.38.38,0,0,1-.23-.7.35.35,0,0,1,.4.26A.34.34,0,0,1,257.13,268.38Z" style="fill:#eb996e"></path><path d="M260.54,267.89c-.15,0-.33-.14-.4-.4s0-.5.17-.54.34.14.4.4S260.7,267.85,260.54,267.89Z" style="fill:#eb996e"></path><path d="M255.07,273c-.16,0-.3-.05-.31-.16s.1-.2.27-.22.3,0,.31.15S255.23,273,255.07,273Z" style="fill:#eb996e"></path><path d="M259.6,271.4a.34.34,0,1,1,.22-.39A.32.32,0,0,1,259.6,271.4Z" style="fill:#eb996e"></path><path d="M283.51,265.59a.32.32,0,0,1-.39-.23.31.31,0,0,1,.18-.41.31.31,0,0,1,.38.23A.32.32,0,0,1,283.51,265.59Z" style="fill:#eb996e"></path><path d="M286.93,264.85c-.16,0-.32-.09-.37-.29a.34.34,0,0,1,.21-.43.38.38,0,0,1,.16.72Z" style="fill:#eb996e"></path><path d="M280.46,266a.28.28,0,0,1-.36-.15.27.27,0,0,1,.2-.34.26.26,0,1,1,.16.49Z" style="fill:#eb996e"></path><path d="M283.44,269.2a.33.33,0,0,1-.43-.15.3.3,0,1,1,.51-.3A.33.33,0,0,1,283.44,269.2Z" style="fill:#eb996e"></path><path d="M286.33,268.25a.28.28,0,0,1-.26-.29.27.27,0,0,1,.33-.2.28.28,0,0,1,.26.29A.28.28,0,0,1,286.33,268.25Z" style="fill:#eb996e"></path><path d="M221.45,276.5c0,.06-.65.05-1.18-.72a2.08,2.08,0,0,1-.31-1.54,2.63,2.63,0,0,1,1.07-1.6,2.69,2.69,0,0,1,1.86-.45,3,3,0,0,1,1.44.55c.72.53.84,1.12.79,1.12s-.31-.43-1-.82a2.68,2.68,0,0,0-2.8,0,2.22,2.22,0,0,0-.9,1.27,1.73,1.73,0,0,0,.16,1.25C220.94,276.28,221.49,276.42,221.45,276.5Z" style="fill:#263238"></path><path d="M311,405.67l.89,25.83S237,446.33,227.36,451.29s-13.56,5.73-13,20l119.63-.2s14.74-5.52,14.45-21.57-4.3-54.62-4.3-54.62Z" style="fill:#ffbe9d"></path><path d="M226.76,471.71l9.94-.91,9.49-22.67c-1.53-.26-33.55-5-35.44-4.47l-7.67,27.28S226.08,471.71,226.76,471.71Z" style="fill:#ffbe9d"></path><path d="M204.87,471.37a1.38,1.38,0,0,0,.53.12c2.65.29,14.86-.46,14.86-.46.56-1.57-.5-6.31-2-6.59s-14.51.6-14.51.6-2,.27-2.56,3.71C200.85,470.87,204.87,471.37,204.87,471.37Z" style="fill:#ffbe9d"></path><path d="M200.75,464.43a1.26,1.26,0,0,0,.53.12c2.64.29,14.19.16,14.68-1.25.56-1.57-.32-5.52-1.84-5.8s-14.52.6-14.52.6-2,.27-2.56,3.71C196.73,463.93,200.75,464.43,200.75,464.43Z" style="fill:#ffbe9d"></path><path d="M198.7,457.65a1.26,1.26,0,0,0,.53.12c2.65.29,14.19.16,14.69-1.25.56-1.57-.33-5.52-1.85-5.8s-14.52.6-14.52.6-2,.27-2.55,3.71C194.68,457.15,198.7,457.65,198.7,457.65Z" style="fill:#ffbe9d"></path><path d="M196.78,450.9c0,.05.21.09.53.12,2.64.29,14.19.16,14.69-1.24.55-1.58-.33-5.53-1.85-5.8s-14.52.6-14.52.6-2,.26-2.55,3.7C192.76,450.41,196.78,450.9,196.78,450.9Z" style="fill:#ffbe9d"></path><path d="M214.87,464.38c0,.19-2.54.43-5.62.52s-5.58,0-5.56-.2,2.53-.44,5.62-.52S214.88,464.18,214.87,464.38Z" style="fill:#eb996e"></path><path d="M214.93,457.57c0,.2-3.57.48-8,.62s-8,.09-8-.11,3.58-.48,8-.62S214.92,457.37,214.93,457.57Z" style="fill:#eb996e"></path><g style="opacity:0.78"><path d="M214.38,450.65c0,.2-3.57.48-8,.62s-8,.09-8-.11,3.57-.48,8-.61S214.38,450.45,214.38,450.65Z" style="fill:#eb996e"></path></g><path d="M232.91,446.38s-21.79-9.69-23.15-8.29-3.46,5.9-3.46,5.9Z" style="fill:#ffbe9d"></path><path d="M328.58,454c-.09,0-.53-1.56-1.57-4a39.83,39.83,0,0,0-2.07-4.15,42,42,0,0,0-3.15-4.71A45.84,45.84,0,0,0,318,437a40.94,40.94,0,0,0-3.53-3c-2.1-1.6-3.53-2.42-3.49-2.5a4.94,4.94,0,0,1,1,.51,26.22,26.22,0,0,1,2.66,1.69,35.46,35.46,0,0,1,3.64,3,39.69,39.69,0,0,1,3.88,4.24,40.26,40.26,0,0,1,3.16,4.8,33.65,33.65,0,0,1,2,4.24,25.43,25.43,0,0,1,1,3A4.45,4.45,0,0,1,328.58,454Z" style="fill:#eb996e"></path><path d="M240.94,332.45,218.4,396.61l-25.34,7.3s9.19,38.88,18.57,45.87c3.19,2.37,8.4,4.94,13.74,4.57,10.13-.71,21.49-7.85,25.82-17.83C255,427.66,265.32,336,265.32,336Z" style="fill:#ffbe9d"></path><path d="M265,338.76l1.32-15.63-3.63-12.55-1.4-4.8,2.74,2.81,5-5.33s-1.62-9.47-3-9.47a25.16,25.16,0,0,0-5.07,1.49c-1,.37-1.79.67-1.79.67L255,298.12l4.24-6.5s4.36,3.63,6.59.48c1.7-2.41-4.65-7.81-7-9.72a2.39,2.39,0,0,0-1.95-.46l-2.47.49a3.59,3.59,0,0,0-3.61-3.29A5.56,5.56,0,0,0,246,282l-2.6.47a4.34,4.34,0,0,0-4.07,2.83l-5.72,15.56,7.34,31.63" style="fill:#ffbe9d"></path><path d="M240.94,332.45s-.06-.19-.16-.56-.24-.95-.41-1.66c-.36-1.48-.88-3.61-1.53-6.34-1.31-5.52-3.17-13.41-5.44-23v-.06l0-.06c1.13-3.08,2.32-6.35,3.57-9.78l1.93-5.26a5,5,0,0,1,1.6-2.5,4.61,4.61,0,0,1,2.88-1h0l2.6-.47-.17.12a6.31,6.31,0,0,1,1.9-2,5.21,5.21,0,0,1,2.73-.91,4,4,0,0,1,2.8.88,3.45,3.45,0,0,1,1.39,2.67l-.31-.27,1.87-.37a6.64,6.64,0,0,1,1-.17,2.7,2.7,0,0,1,1.05.15,2.83,2.83,0,0,1,.89.54l.76.62c.5.42,1,.85,1.49,1.29a33.87,33.87,0,0,1,2.81,2.81,9.32,9.32,0,0,1,2.13,3.5,2.39,2.39,0,0,1,0,1.27,3,3,0,0,1-.73,1,3,3,0,0,1-2.26.82,7.73,7.73,0,0,1-4.21-1.82l.39-.05c-1.44,2.19-2.85,4.36-4.24,6.49l-.33-.37,4.23-2.16h0c1.43-.54,2.84-1.08,4.26-1.53a17.33,17.33,0,0,1,2.17-.59,2,2,0,0,1,.63,0,1,1,0,0,1,.56.44,4.91,4.91,0,0,1,.52,1,49.2,49.2,0,0,1,2,8.2l0,.11-.08.09q-2.61,2.76-5,5.32l-.16.16-.16-.16-2.73-2.81.35-.2c1.92,6.72,3.6,12.55,5,17.36v.05c-.45,4.93-.8,8.83-1,11.52l-.3,3.06c0,.32-.06.58-.08.78a.82.82,0,0,1-.05.26s0-.09,0-.26,0-.46,0-.79c.05-.72.12-1.74.22-3.06.21-2.7.51-6.6.9-11.53v.05c-1.41-4.8-3.11-10.62-5.08-17.33l-.24-.8.59.6,2.75,2.79h-.32l5-5.34-.06.2a49.11,49.11,0,0,0-2-8.1,4.85,4.85,0,0,0-.46-.91.64.64,0,0,0-.27-.25,2.09,2.09,0,0,0-.45,0,21.26,21.26,0,0,0-2.1.58c-1.41.45-2.81,1-4.23,1.53h0l-4.23,2.16-.85.44.52-.8,4.23-6.5.15-.23.23.18a7.5,7.5,0,0,0,3.9,1.7,2.56,2.56,0,0,0,2.47-1.5,1.71,1.71,0,0,0,0-1,8.94,8.94,0,0,0-2-3.28A31.48,31.48,0,0,0,261,284.6c-.48-.43-1-.86-1.47-1.27a6.22,6.22,0,0,0-1.5-1.07,2.77,2.77,0,0,0-1.75,0l-1.87.37-.31.07v-.33a2.93,2.93,0,0,0-1.2-2.24,3.49,3.49,0,0,0-2.46-.77,5.21,5.21,0,0,0-4.22,2.68l-.06.11-.11,0-2.61.47h0a4.14,4.14,0,0,0-2.58.91,4.59,4.59,0,0,0-1.46,2.29q-1,2.69-1.94,5.26-1.91,5.13-3.61,9.76v-.11c2.2,9.63,4,17.53,5.26,23.06l1.42,6.37c.16.71.28,1.26.36,1.67A5.71,5.71,0,0,1,240.94,332.45Z" style="fill:#eb996e"></path><path d="M259,303.76a28.21,28.21,0,0,1,4.38-2.36l1.63-.8-1.35,1.22a4.28,4.28,0,0,0-1.4,3.46,4.26,4.26,0,0,0,.59,1.87,11.72,11.72,0,0,0,1.19,1.44c0,.05-.77-.23-1.5-1.25a4.36,4.36,0,0,1-.76-2,4.49,4.49,0,0,1,.52-2.6,4.69,4.69,0,0,1,1-1.29l.27.42A28.68,28.68,0,0,1,259,303.76Z" style="fill:#eb996e"></path><path d="M247,295.31a12.57,12.57,0,0,1,1.22-2.36c.81-1.43,2-3.37,3.27-5.5.66-1.07,1.27-2.08,1.87-3a6.21,6.21,0,0,1,2.07-2.1,3.35,3.35,0,0,1,1.95-.43,1.18,1.18,0,0,1,.69.24s-.26,0-.7,0a3.45,3.45,0,0,0-1.75.55c-1.38.81-2.35,2.95-3.68,5.05s-2.51,4-3.4,5.42A14.92,14.92,0,0,1,247,295.31Z" style="fill:#eb996e"></path><path d="M239.27,295.25a8.62,8.62,0,0,1,.74-2.12c.53-1.29,1.31-3,2.25-4.94s1.86-3.58,2.56-4.77a9.63,9.63,0,0,1,1.25-1.88,11.14,11.14,0,0,1-.92,2c-.71,1.42-1.53,3-2.42,4.83l-2.39,4.86A10.08,10.08,0,0,1,239.27,295.25Z" style="fill:#eb996e"></path><path d="M221.16,390.34a5.7,5.7,0,0,1-.37,1.16l-1.15,3.1c-1,2.62-2.34,6.24-3.77,10.25s-2.66,7.68-3.54,10.33c-.42,1.25-.78,2.3-1.06,3.14a6,6,0,0,1-.45,1.13,5.36,5.36,0,0,1,.25-1.19c.2-.76.51-1.85.9-3.19.8-2.68,2-6.37,3.41-10.39s2.84-7.63,3.91-10.21c.54-1.29,1-2.33,1.32-3.05A5.55,5.55,0,0,1,221.16,390.34Z" style="fill:#eb996e"></path><path d="M254.58,419.92a.8.8,0,0,1,0,.29c0,.23-.07.51-.11.86-.12.8-.28,1.9-.48,3.31s-.48,3.19-.89,5.21a42.18,42.18,0,0,1-1.88,6.76,22.31,22.31,0,0,1-4.41,7.27,33.19,33.19,0,0,1-7.6,6.13,41.11,41.11,0,0,1-10,4.15,22.33,22.33,0,0,1-5.69.79,17,17,0,0,1-5.82-1,21.54,21.54,0,0,1-9.29-6.86,36.93,36.93,0,0,1-5.38-9.36c-1.3-3.19-2.08-6.38-3-9.28s-1.74-5.62-2.5-8.1c-1.55-4.95-2.73-9-3.47-11.78-.37-1.41-.64-2.5-.81-3.24l-.19-.85a.92.92,0,0,1,0-.29,1.08,1.08,0,0,1,.1.28c.06.21.14.49.23.83.22.77.52,1.85.91,3.21.79,2.79,2,6.8,3.62,11.73.78,2.48,1.64,5.18,2.56,8.09s1.71,6.07,3,9.22a36.52,36.52,0,0,0,5.33,9.22,21.06,21.06,0,0,0,9.06,6.69,16.73,16.73,0,0,0,5.65,1,21.5,21.5,0,0,0,5.56-.77,40.69,40.69,0,0,0,9.85-4.06,33.28,33.28,0,0,0,7.52-6,22.38,22.38,0,0,0,4.39-7.11,44.61,44.61,0,0,0,1.94-6.69c.43-2,.72-3.76,1-5.18s.44-2.5.57-3.29l.17-.86A2.85,2.85,0,0,1,254.58,419.92Z" style="fill:#eb996e"></path></g><g id="freepik--Plant--inject-17"><path d="M66.76,405.21c-.9-3.12-2.83-6.14-5.82-7.43s-6.71-.57-9.89.58-6.3,2.7-9.67,2.91-7.19-1.39-8.2-4.62c-1-3,.88-6.27,3.17-8.48A20,20,0,0,1,69.13,396" style="fill:#EB399A"></path><g style="opacity:0.5"><path d="M66.76,405.21c-.9-3.12-2.83-6.14-5.82-7.43s-6.71-.57-9.89.58-6.3,2.7-9.67,2.91-7.19-1.39-8.2-4.62c-1-3,.88-6.27,3.17-8.48A20,20,0,0,1,69.13,396"></path></g><path d="M93.51,418.78c4.95-4.71,4.71-12.9,2.24-19.27S87.88,388.25,81.86,385a44,44,0,0,0-38.34-1.24,18.18,18.18,0,0,1,14.71,8.64c2.72,4.51,3.32,10,5.56,14.74a23.21,23.21,0,0,0,29.72,11.62" style="fill:#EB399A"></path><path d="M95.89,390.5c5.49-6.47,6.22-16.86,5.41-25.31s-2.77-16.95-1.44-25.33c.79-5,2.72-9.7,3.37-14.68s-.27-10.63-4.13-13.84c-4.44-3.7-11.43-2.83-16,.64s-7.29,8.93-9.25,14.37c-4.29,11.94-5.87,25.19-2.34,37.38s11.81,23.09,24,26.77" style="fill:#EB399A"></path><path d="M98.52,443.62a3.2,3.2,0,0,0,0-.74c0-.49,0-1.21,0-2.14-.07-1.86-.25-4.55-.66-7.84a104.69,104.69,0,0,0-2.11-11.49,52.9,52.9,0,0,0-5.24-13.29A55.24,55.24,0,0,0,73,389.21c-1.37-.95-2.69-1.67-3.83-2.33s-2.19-1.12-3-1.53l-2-.83-.7-.26a3.31,3.31,0,0,0,.66.35l1.93.9c.83.43,1.83,1,3,1.59s2.43,1.42,3.78,2.37A56.39,56.39,0,0,1,90.1,408.34c5,8.82,6.42,18.1,7.42,24.6.46,3.28.68,6,.81,7.81l.12,2.13A5.31,5.31,0,0,0,98.52,443.62Z" style="fill:#263238"></path><path d="M145.83,365c10.15,6.13,10.12,11.7,8.42,17s-7.92,8.91-13.08,6.94c-2.92-1.11-5-3.65-6.84-6.19s-3.51-5.28-6-7.11-6.2-2.54-8.74-.72" style="fill:#EB399A"></path><g style="opacity:0.5"><path d="M145.83,365c10.15,6.13,10.12,11.7,8.42,17s-7.92,8.91-13.08,6.94c-2.92-1.11-5-3.65-6.84-6.19s-3.51-5.28-6-7.11-6.2-2.54-8.74-.72"></path></g><path d="M153.43,371.68c-2.66-3.67-9.21-4.73-13.35-2.9s-7.17,5.46-9.89,9.08-5.35,7.44-9.11,10-9,3.44-12.76.9a11,11,0,0,1-4.33-7.51,24.65,24.65,0,0,1,.6-8.84c.89-4.26,2.35-8.7,5.76-11.41,3.8-3,9.06-3.15,13.91-3,5.55.19,11.2.6,16.41,2.53s10.54,6.09,12.76,11.19" style="fill:#EB399A"></path><path d="M107,435.5a1,1,0,0,0,0-.23c0-.17,0-.39,0-.65q0-.92.09-2.52c.06-2.22.15-5.38.26-9.26s.28-8.57.57-13.73.67-10.84,1.45-16.74a55,55,0,0,1,1.68-8.51,45,45,0,0,1,3.11-7.44,44.29,44.29,0,0,1,3.93-6.16,39.78,39.78,0,0,1,4.28-4.7,31.63,31.63,0,0,1,7.59-5.18c.5-.22.93-.45,1.32-.6l1-.39.61-.24.2-.1-.21.05-.63.2-1,.35c-.4.15-.83.36-1.34.57a30.73,30.73,0,0,0-7.74,5.1,40.3,40.3,0,0,0-4.36,4.71,43,43,0,0,0-4,6.2,43.88,43.88,0,0,0-3.16,7.5,53.19,53.19,0,0,0-1.71,8.58c-.78,5.93-1.15,11.61-1.42,16.78s-.39,9.83-.47,13.74-.11,7.08-.12,9.27v2.52c0,.26,0,.48,0,.65A.6.6,0,0,0,107,435.5Z" style="fill:#263238"></path><path d="M103.31,440.08a30,30,0,0,0,1.11-4.36,45.71,45.71,0,0,0,.46-12.24A81.72,81.72,0,0,0,101,405.72c-2.09-6.53-4.91-13.51-7.33-21a94.52,94.52,0,0,1-2.91-11.11A97.4,97.4,0,0,1,89.34,363,156.17,156.17,0,0,1,89,344.84c.18-5.17.45-9.35.63-12.24.08-1.42.15-2.54.19-3.33,0-.36,0-.64,0-.86a1.13,1.13,0,0,0,0-.3,1.4,1.4,0,0,0,0,.3c0,.21,0,.5-.09.86-.07.79-.16,1.9-.28,3.32-.23,2.88-.55,7.06-.77,12.23A150.77,150.77,0,0,0,88.92,363a98.07,98.07,0,0,0,1.42,10.66,96.45,96.45,0,0,0,2.92,11.17c2.42,7.53,5.26,14.5,7.36,21a82.75,82.75,0,0,1,3.94,17.66,46.85,46.85,0,0,1-.32,12.18c-.25,1.42-.47,2.52-.67,3.26q-.13.53-.21.84A1.28,1.28,0,0,0,103.31,440.08Z" style="fill:#263238"></path><polygon points="78.15 444.67 125.8 444.67 126.88 435.5 78.15 435.5 78.15 444.67" style="fill:#455a64"></polygon><polygon points="120.68 443.62 114.72 471.13 88.83 471.13 83.26 443.62 120.68 443.62" style="fill:#455a64"></polygon><path d="M78.15,444.67c0,.12,10.47.19,23.39.16s23.4-.17,23.4-.29-10.47-.2-23.4-.17S78.15,444.54,78.15,444.67Z" style="fill:#455a64"></path><path d="M86.33,458.25a19.22,19.22,0,0,1,4.19-2.41,14.8,14.8,0,0,1,5.11-1A17.7,17.7,0,0,1,101.9,456c2.17.73,4.2,1.59,6.17,2.06a14.79,14.79,0,0,0,5.34.16,11.13,11.13,0,0,0,3.43-1.09,7.53,7.53,0,0,0,.83-.52c.18-.14.26-.21.26-.23s-.41.24-1.17.59a11.78,11.78,0,0,1-3.39.93,14.89,14.89,0,0,1-5.2-.25c-1.91-.48-3.94-1.34-6.13-2.08a17.84,17.84,0,0,0-6.43-1.14,14.63,14.63,0,0,0-5.21,1.14,13.5,13.5,0,0,0-3.1,1.82,7.77,7.77,0,0,0-.74.63C86.39,458.15,86.32,458.24,86.33,458.25Z" style="fill:#263238"></path><path d="M86.69,460.08a20.82,20.82,0,0,1,4-2.37,13.53,13.53,0,0,1,4.92-1,17.65,17.65,0,0,1,6.07,1.09c2.1.7,4.07,1.51,6,2a15.59,15.59,0,0,0,5.13.58,8.78,8.78,0,0,0,3.36-.9,6.8,6.8,0,0,0,.8-.51c.17-.13.26-.21.25-.22s-.4.23-1.13.57a9.27,9.27,0,0,1-3.3.74,15.91,15.91,0,0,1-5-.66c-1.84-.52-3.8-1.34-5.92-2.05a17.55,17.55,0,0,0-6.22-1.08,13.46,13.46,0,0,0-8,2.94,6.59,6.59,0,0,0-.71.62C86.75,460,86.68,460.07,86.69,460.08Z" style="fill:#fff"></path><path d="M85.85,456.42a23.6,23.6,0,0,1,4.31-2.54,15.94,15.94,0,0,1,5.23-1.25,16.73,16.73,0,0,1,6.48,1.14,58.32,58.32,0,0,0,6.39,2.08,16.13,16.13,0,0,0,5.51,0,12.39,12.39,0,0,0,3.54-1.12,5.63,5.63,0,0,0,.86-.53c.19-.14.28-.22.27-.23s-.42.25-1.21.6a13.39,13.39,0,0,1-3.51,1,16.67,16.67,0,0,1-5.38-.11,63.15,63.15,0,0,1-6.33-2.1,16.92,16.92,0,0,0-6.64-1.13,16,16,0,0,0-8.51,3.29,10,10,0,0,0-.77.66C85.93,456.32,85.84,456.41,85.85,456.42Z" style="fill:#fff"></path><path d="M77.73,444.71c0,.12,10.72.22,23.93.22s23.94-.1,23.94-.22-10.71-.23-23.94-.23S77.73,444.58,77.73,444.71Z" style="fill:#263238"></path></g><g id="freepik--Desk--inject-17"><path d="M469,471.14c0,.14-97.47.26-217.67.26s-217.69-.12-217.69-.26,97.44-.27,217.69-.27S469,471,469,471.14Z" style="fill:#263238"></path></g></svg>